PathFileType	4	(X/Y/Z)	/Users/itak/Documents/Research/Walk-IL/dataset/trc/00362_00011.trc
DataRate	CameraRate	NumFrames	NumMarkers	Units	OrigDataRate	OrigDataStartFrame	OrigNumFrames
100.000000	100.000000	4	54	mm	100.000000	148	593
Frame#	Time	RPSI			LPSI			L3			STRN			T10			C7			CLAV			RBAK			LBAK			LSHO			LUPA			LAEL			LAOL			LWPS			LFRA			LIFD			LHPS			LHTS			RSHO			RUPA			RAEL			RAOL			RWPS			RFRA			RIFD			RHTS			RHPS			RBHD			LFHD			RFHD			LBHD			LHIP			RHIP			RASI			LASI			LKNE			LTHI			LANK			LTIP			LTOE			LMT1			LMT5			LHEE			RKNE			RTHI			RTIP			RTOE			RMT1			RMT5			RHEE			LWTS			RWTS			RANK			*53			
		X1	Y1	Z1	X2	Y2	Z2	X3	Y3	Z3	X4	Y4	Z4	X5	Y5	Z5	X6	Y6	Z6	X7	Y7	Z7	X8	Y8	Z8	X9	Y9	Z9	X10	Y10	Z10	X11	Y11	Z11	X12	Y12	Z12	X13	Y13	Z13	X14	Y14	Z14	X15	Y15	Z15	X16	Y16	Z16	X17	Y17	Z17	X18	Y18	Z18	X19	Y19	Z19	X20	Y20	Z20	X21	Y21	Z21	X22	Y22	Z22	X23	Y23	Z23	X24	Y24	Z24	X25	Y25	Z25	X26	Y26	Z26	X27	Y27	Z27	X28	Y28	Z28	X29	Y29	Z29	X30	Y30	Z30	X31	Y31	Z31	X32	Y32	Z32	X33	Y33	Z33	X34	Y34	Z34	X35	Y35	Z35	X36	Y36	Z36	X37	Y37	Z37	X38	Y38	Z38	X39	Y39	Z39	X40	Y40	Z40	X41	Y41	Z41	X42	Y42	Z42	X43	Y43	Z43	X44	Y44	Z44	X45	Y45	Z45	X46	Y46	Z46	X47	Y47	Z47	X48	Y48	Z48	X49	Y49	Z49	X50	Y50	Z50	X51	Y51	Z51	X52	Y52	Z52	X53	Y53	Z53	X54	Y54	Z54	

149	1.48	-1365.547729492188	985.8683471679688	845.6447143554688	-1358.611694335938	985.0809936523438	717.26171875	-1360.10888671875	1037.897216796875	784.7151489257812	-1134.821166992188	1218.936889648438	780.056640625	-1371.192749023438	1156.668334960938	769.5413818359375	-1326.028442382812	1404.091552734375	751.646484375	-1172.49169921875	1346.364135742188	769.829833984375	-1381.758056640625	1268.1328125	820.0473022460938	-1330.04345703125	1364.648071289062	649.1965942382812	-1239.857055664062	1379.455200195312	599.109130859375	-1250.47900390625	1255.130859375	536.0330200195312	-1227.659423828125	1049.925170898438	536.0430297851562	-1294.013671875	1038.658203125	588.0616455078125	-1168.520141601562	797.8699340820312	540.754638671875	-1210.5009765625	946.378662109375	535.861572265625	-1127.338989257812	649.5986938476562	604.482177734375	-1172.127563476562	728.52734375	548.9402465820312	-1119.60302734375	733.4707641601562	585.7728881835938	-1281.004760742188	1394.344970703125	920.7164306640625	-1294.822387695312	1329.231567382812	983.2164306640625	-1281.089233398438	1058.8876953125	1020.161437988281	-1319.2333984375	1052.445434570312	933.8528442382812	-1205.770629882812	815.7377319335938	1037.655029296875	-1255.991333007812	992.6260375976562	1029.177978515625	-1158.944091796875	657.794677734375	981.58984375	-1142.494018554688	730.81689453125	984.6952514648438	-1190.775146484375	732.4293823242188	1035.258178710938	-1294.6748046875	1607.691284179688	829.8516845703125	-1112.862915039062	1624.526123046875	729.3614501953125	-1132.861206054688	1626.70849609375	827.9154052734375	-1292.716796875	1598.474975585938	685.5352172851562	-1270.858032226562	926.319580078125	615.8125	-1296.274780273438	928.5685424804688	959.2376708984375	-1185.989624023438	951.6552734375	923.5213623046875	-1150.62646484375	943.9146118164062	685.5849609375	-1249.283813476562	468.2281799316406	615.3448486328125	-1235.498657226562	604.8470458984375	611.3031616210938	-1341.928466796875	54.62178421020508	597.3081665039062	-1296.328979492188	255.4139251708984	594.0010375976562	-1142.546875	47.27727508544922	671.9881591796875	-1216.114135742188	33.57394409179688	706.857666015625	-1215.1650390625	49.22028732299805	594.2308959960938	-1383.284545898438	46.87240600585938	660.592041015625	-1297.900024414062	468.7467956542969	971.0881958007812	-1221.955200195312	722.4904174804688	972.4288940429688	-1296.36181640625	352.6144104003906	971.7239990234375	-1169.890991210938	46.20618057250977	938.280517578125	-1222.517944335938	44.98508834838867	893.3301391601562	-1268.016723632812	38.77528762817383	1003.12451171875	-1394.5986328125	27.59268569946289	955.4768676757812	-1131.696655273438	811.0725708007812	597.8191528320312	-1172.12158203125	830.5056762695312	970.5078125	-1368.4697265625	51.21684265136719	978.5189819335938	nan	nan	nan	
150	1.49	-1364.947509765625	986.12548828125	845.7233276367188	-1358.482543945312	985.524658203125	717.3416748046875	-1359.563720703125	1038.263793945312	784.7288208007812	-1134.131103515625	1218.93408203125	779.6354370117188	-1370.41796875	1156.881713867188	769.4088134765625	-1325.171752929688	1404.277465820312	751.2687377929688	-1171.669555664062	1346.369995117188	769.3576049804688	-1380.927734375	1268.396850585938	819.8538818359375	-1329.340576171875	1364.810791015625	648.8934326171875	-1239.231201171875	1379.46484375	598.6456298828125	-1249.9521484375	1255.147583007812	535.7181396484375	-1227.233154296875	1049.938232421875	535.8751220703125	-1293.528076171875	1038.656372070312	587.969970703125	-1168.032470703125	797.8594970703125	540.8097534179688	-1210.132202148438	946.3579711914062	535.8003540039062	-1126.828857421875	649.6597900390625	604.6505126953125	-1171.799926757812	728.5455322265625	549.0474243164062	-1119.227661132812	733.399658203125	585.869873046875	-1280.02490234375	1394.575073242188	920.3240356445312	-1293.877319335938	1329.55029296875	982.8536987304688	-1280.40576171875	1059.248413085938	1019.932983398438	-1318.55810546875	1052.756103515625	933.6656494140625	-1205.28271484375	815.9627075195312	1037.46826171875	-1255.3720703125	992.985107421875	1029.017456054688	-1158.821899414062	657.8828125	981.62353515625	-1142.108520507812	731.0795288085938	984.7095336914062	-1190.45947265625	732.67529296875	1035.307495117188	-1293.662963867188	1607.914916992188	829.4475708007812	-1111.855712890625	1624.607177734375	728.8709716796875	-1131.820556640625	1626.750244140625	827.4322509765625	-1291.838623046875	1598.727905273438	685.1268920898438	-1270.852661132812	926.4476928710938	615.3419189453125	-1295.267456054688	928.3047485351562	958.736572265625	-1185.25244140625	951.4237060546875	923.0477905273438	-1150.672241210938	944.0036010742188	685.102294921875	-1247.943481445312	468.0999145507812	615.5182495117188	-1234.7958984375	604.9436645507812	611.2328491210938	-1341.928833007812	54.86957550048828	597.6484375	-1295.497192382812	255.4016723632812	594.3032836914062	-1142.401123046875	47.23636627197266	672.0260009765625	-1216.069580078125	33.52447891235352	706.8473510742188	-1215.108154296875	49.27538299560547	594.2728881835938	-1383.23193359375	47.08034896850586	660.9149169921875	-1297.826904296875	468.6346130371094	970.7872314453125	-1220.875	722.2017822265625	971.8555908203125	-1296.34765625	352.5696716308594	971.524169921875	-1169.914428710938	46.23148727416992	938.2798461914062	-1222.501953125	44.9225959777832	893.3465576171875	-1268.026245117188	38.77134323120117	1003.128295898438	-1394.679931640625	27.57130241394043	955.56787109375	-1131.310791015625	811.0781860351562	597.9115600585938	-1171.85009765625	830.6859130859375	970.4940185546875	-1368.490112304688	51.17856597900391	978.5458374023438	nan	nan	nan	
151	1.5	-1364.351806640625	986.3851928710938	845.8121948242188	-1358.352783203125	985.972412109375	717.4264526367188	-1359.041870117188	1038.656127929688	784.74560546875	-1133.427856445312	1218.920532226562	779.136962890625	-1369.61328125	1157.12109375	769.2572021484375	-1324.27880859375	1404.484741210938	750.87646484375	-1170.781005859375	1346.390014648438	768.8472290039062	-1380.05712890625	1268.692993164062	819.6515502929688	-1328.620971679688	1365.01171875	648.5530395507812	-1238.587524414062	1379.473510742188	598.150146484375	-1249.449584960938	1255.184204101562	535.353271484375	-1226.80126953125	1049.977905273438	535.6596069335938	-1293.053955078125	1038.677612304688	587.8552856445312	-1167.567626953125	797.8425903320312	540.840576171875	-1209.765991210938	946.3367309570312	535.7076416015625	-1126.34326171875	649.6982421875	604.7617797851562	-1171.507202148438	728.60986328125	549.095703125	-1118.879516601562	733.368896484375	585.9424438476562	-1278.9619140625	1394.82763671875	919.906005859375	-1292.853637695312	1329.89697265625	982.4551391601562	-1279.700439453125	1059.6484375	1019.710205078125	-1317.83447265625	1053.10498046875	933.4577026367188	-1204.762084960938	816.2136840820312	1037.244506835938	-1254.745483398438	993.3757934570312	1028.845458984375	-1158.624389648438	658.0369873046875	981.62451171875	-1141.68212890625	731.436279296875	984.7431030273438	-1190.09033203125	732.9190673828125	1035.287719726562	-1292.594604492188	1608.133666992188	829.0159912109375	-1110.847534179688	1624.707885742188	728.2925415039062	-1130.74609375	1626.808715820312	826.90625	-1290.908569335938	1598.9814453125	684.7015380859375	-1270.915283203125	926.5938110351562	614.776123046875	-1294.146118164062	927.9691772460938	958.1043090820312	-1184.472290039062	951.1710205078125	922.51806640625	-1150.7861328125	944.110595703125	684.5244750976562	-1246.53662109375	467.9764099121094	615.662841796875	-1234.084716796875	605.0792846679688	611.0873413085938	-1341.925415039062	55.12469482421875	598.020263671875	-1294.60791015625	255.4212341308594	594.6407470703125	-1142.251342773438	47.19330978393555	672.0628051757812	-1216.013793945312	33.47587585449219	706.8335571289062	-1215.045532226562	49.32920074462891	594.3009643554688	-1383.126098632812	47.31034088134766	661.2692260742188	-1297.730102539062	468.525146484375	970.3851928710938	-1219.6806640625	721.8413696289062	971.1510620117188	-1296.351318359375	352.5352478027344	971.2978515625	-1169.930419921875	46.24776458740234	938.2767944335938	-1222.457885742188	44.86562347412109	893.3540649414062	-1268.033081054688	38.77039337158203	1003.131591796875	-1394.746826171875	27.55526161193848	955.6340942382812	-1130.947021484375	811.08447265625	597.9891357421875	-1171.485717773438	830.9086303710938	970.3966674804688	-1368.505126953125	51.14973831176758	978.5631713867188	nan	nan	nan	
152	1.51	-1363.75439453125	986.6400146484375	845.9082641601562	-1358.22802734375	986.4232177734375	717.507568359375	-1358.531616210938	1039.0693359375	784.7581176757812	-1132.723388671875	1218.89599609375	778.5545043945312	-1368.782104492188	1157.386352539062	769.0936279296875	-1323.3486328125	1404.713623046875	750.471435546875	-1169.835205078125	1346.428344726562	768.2937622070312	-1379.147827148438	1269.018432617188	819.4391479492188	-1327.8876953125	1365.24169921875	648.1707153320312	-1237.92333984375	1379.4833984375	597.6212158203125	-1248.966796875	1255.2275390625	534.9427490234375	-1226.37109375	1050.029296875	535.4052734375	-1292.58984375	1038.71923828125	587.7139282226562	-1167.135375976562	797.8179931640625	540.8515625	-1209.3916015625	946.309814453125	535.5841064453125	-1125.873291015625	649.7122802734375	604.8262329101562	-1171.241577148438	728.6994018554688	549.1083374023438	-1118.545654296875	733.3809814453125	585.9888305664062	-1277.811889648438	1395.102661132812	919.458740234375	-1291.744750976562	1330.267944335938	982.0239868164062	-1278.961181640625	1060.07568359375	1019.488159179688	-1317.061279296875	1053.479370117188	933.2227172851562	-1204.217163085938	816.4891357421875	1037.003784179688	-1254.095458984375	993.7828979492188	1028.65576171875	-1158.360229492188	658.2385864257812	981.6005249023438	-1141.260620117188	731.793212890625	984.7431640625	-1189.658935546875	733.1571655273438	1035.196044921875	-1291.465209960938	1608.342895507812	828.5564575195312	-1109.83251953125	1624.8212890625	727.6290283203125	-1129.63037109375	1626.882202148438	826.3287353515625	-1289.923950195312	1599.233276367188	684.2569580078125	-1271.03076171875	926.7616577148438	614.1078491210938	-1292.970947265625	927.6023559570312	957.4097290039062	-1183.655029296875	950.8919067382812	921.9346923828125	-1150.952880859375	944.2395629882812	683.8439331054688	-1245.076049804688	467.8811645507812	615.765625	-1233.381958007812	605.2513427734375	610.87646484375	-1341.909790039062	55.38417434692383	598.4351196289062	-1293.67724609375	255.4690246582031	595.0067138671875	-1142.096435546875	47.15457153320312	672.0863647460938	-1215.936645507812	33.43285369873047	706.8201293945312	-1214.981567382812	49.38645553588867	594.3195190429688	-1382.963256835938	47.57059478759766	661.6785278320312	-1297.605590820312	468.4288330078125	969.8805541992188	-1218.432495117188	721.4496459960938	970.3842163085938	-1296.377197265625	352.5134582519531	971.0535888671875	-1169.940307617188	46.25761413574219	938.2689819335938	-1222.396484375	44.83188247680664	893.353271484375	-1268.035766601562	38.77306747436523	1003.133544921875	-1394.795166015625	27.54604339599609	955.6715698242188	-1130.583740234375	811.0938720703125	598.0350341796875	-1171.000610351562	831.1741943359375	970.205322265625	-1368.514892578125	51.13298416137695	978.5700073242188	nan	nan	nan	
